<mxfile host="app.diagrams.net" modified="2020-11-05T12:18:34.510Z" agent="5.0 (Windows NT 10.0; Win64; x64) AppleWebKit/537.36 (KHTML, like Gecko) Chrome/86.0.4240.111 Safari/537.36" etag="J_B8HAvABWN1hGfphjJh" version="13.9.1" type="github">
  <diagram id="uAU4kYy5SIg-m_7U1jCY" name="Page-1">
    <mxGraphModel dx="1452" dy="552" grid="1" gridSize="10" guides="1" tooltips="1" connect="1" arrows="1" fold="1" page="1" pageScale="1" pageWidth="850" pageHeight="1100" math="0" shadow="0">
      <root>
        <mxCell id="0" />
        <mxCell id="1" parent="0" />
        <UserObject label="Update Notes" lucidchartObjectId="BilLvsvKNe_M" id="-Xr3fof6X1vRUvVv6thg-1">
          <mxCell style="html=1;overflow=block;whiteSpace=wrap;strokeColor=none;fillColor=none;whiteSpace=wrap;fontSize=11;fontColor=#333333;spacing=0;strokeOpacity=100;rounded=1;absoluteArcSize=1;arcSize=7;strokeWidth=2;" vertex="1" zOrder="0" parent="1">
            <mxGeometry x="948" y="532" width="144" height="36" as="geometry" />
          </mxCell>
        </UserObject>
        <UserObject label="LAMBDA" lucidchartObjectId="gklLBwB58TD0" id="-Xr3fof6X1vRUvVv6thg-2">
          <mxCell style="html=1;overflow=block;whiteSpace=wrap;strokeColor=none;fillColor=none;whiteSpace=wrap;fontSize=11;fontColor=#333333;spacing=0;strokeOpacity=100;rounded=1;absoluteArcSize=1;arcSize=7;strokeWidth=2;" vertex="1" zOrder="0" parent="1">
            <mxGeometry x="1005" y="588" width="144" height="36" as="geometry" />
          </mxCell>
        </UserObject>
        <UserObject label="LAMBDA" lucidchartObjectId="~_kLXt2m7tki" id="-Xr3fof6X1vRUvVv6thg-3">
          <mxCell style="html=1;overflow=block;whiteSpace=wrap;strokeColor=none;fillColor=none;whiteSpace=wrap;fontSize=11;fontColor=#333333;spacing=0;strokeOpacity=100;rounded=1;absoluteArcSize=1;arcSize=7;strokeWidth=2;" vertex="1" zOrder="0" parent="1">
            <mxGeometry x="960" y="678" width="144" height="36" as="geometry" />
          </mxCell>
        </UserObject>
        <UserObject label="SalesForce Communities" lucidchartObjectId="ZzjLWltSN1pI" id="-Xr3fof6X1vRUvVv6thg-4">
          <mxCell style="html=1;overflow=block;whiteSpace=wrap;;whiteSpace=wrap;fontSize=13;fontColor=#333333;spacing=7;strokeColor=#5e5e5e;strokeOpacity=100;rounded=1;absoluteArcSize=1;arcSize=7;strokeWidth=2;" vertex="1" zOrder="1" parent="1">
            <mxGeometry x="12" y="96" width="132" height="336" as="geometry" />
          </mxCell>
        </UserObject>
        <UserObject label="Order Literature" lucidchartObjectId="pBjLOZaNNB7b" id="-Xr3fof6X1vRUvVv6thg-5">
          <mxCell style="html=1;overflow=block;whiteSpace=wrap;;whiteSpace=wrap;fontSize=13;fontColor=#333333;spacing=0;strokeColor=#5e5e5e;strokeOpacity=100;rounded=1;absoluteArcSize=1;arcSize=7;strokeWidth=2;" vertex="1" zOrder="2" parent="1">
            <mxGeometry x="384" y="84" width="108" height="36" as="geometry" />
          </mxCell>
        </UserObject>
        <mxCell id="-Xr3fof6X1vRUvVv6thg-92" style="edgeStyle=orthogonalEdgeStyle;rounded=0;orthogonalLoop=1;jettySize=auto;html=1;exitX=1;exitY=0.5;exitDx=0;exitDy=0;entryX=0;entryY=0.5;entryDx=0;entryDy=0;" edge="1" parent="1" source="-Xr3fof6X1vRUvVv6thg-6" target="-Xr3fof6X1vRUvVv6thg-83">
          <mxGeometry relative="1" as="geometry" />
        </mxCell>
        <UserObject label="Sales Literature" lucidchartObjectId="YBjLfeXOZ875" id="-Xr3fof6X1vRUvVv6thg-6">
          <mxCell style="html=1;overflow=block;whiteSpace=wrap;;whiteSpace=wrap;fontSize=13;fontColor=#333333;spacing=0;strokeColor=#5e5e5e;strokeOpacity=100;rounded=1;absoluteArcSize=1;arcSize=7;strokeWidth=2;" vertex="1" zOrder="3" parent="1">
            <mxGeometry x="371" y="310" width="108" height="36" as="geometry" />
          </mxCell>
        </UserObject>
        <UserObject label="Search For Consumer Order details" lucidchartObjectId="nCjL~i5pT-_8" id="-Xr3fof6X1vRUvVv6thg-7">
          <mxCell style="html=1;overflow=block;whiteSpace=wrap;;whiteSpace=wrap;fontSize=10;fontColor=#333333;spacing=0;strokeColor=#5e5e5e;strokeOpacity=100;rounded=1;absoluteArcSize=1;arcSize=7;strokeWidth=2;" vertex="1" zOrder="5" parent="1">
            <mxGeometry x="400" y="522" width="108" height="36" as="geometry" />
          </mxCell>
        </UserObject>
        <UserObject label="" lucidchartObjectId="IDjLZH2CIHoi" id="-Xr3fof6X1vRUvVv6thg-8">
          <mxCell style="html=1;jettySize=18;whiteSpace=wrap;fontSize=11;strokeColor=#5E5E5E;rounded=1;arcSize=12;edgeStyle=orthogonalEdgeStyle;startArrow=none;;endArrow=block;endFill=1;;exitX=1.007;exitY=0.5;exitPerimeter=0;entryX=-0.008;entryY=0.5;entryPerimeter=0;" edge="1" parent="1" source="-Xr3fof6X1vRUvVv6thg-4" target="-Xr3fof6X1vRUvVv6thg-6">
            <mxGeometry width="100" height="100" relative="1" as="geometry">
              <Array as="points">
                <mxPoint x="250" y="264" />
                <mxPoint x="250" y="328" />
              </Array>
            </mxGeometry>
          </mxCell>
        </UserObject>
        <mxCell id="-Xr3fof6X1vRUvVv6thg-9" value="eDoc" style="text;html=1;resizable=0;labelBackgroundColor=#ffffff;align=center;verticalAlign=middle;fontStyle=1;fontColor=#333333;;fontSize=10.666666666666666;" vertex="1" parent="-Xr3fof6X1vRUvVv6thg-8">
          <mxGeometry x="0.6569165143205373" relative="1" as="geometry" />
        </mxCell>
        <UserObject label="" lucidchartObjectId="6DjLCiu6LorC" id="-Xr3fof6X1vRUvVv6thg-10">
          <mxCell style="html=1;jettySize=18;whiteSpace=wrap;fontSize=11;strokeColor=#5E5E5E;rounded=1;arcSize=12;edgeStyle=orthogonalEdgeStyle;startArrow=none;;endArrow=block;endFill=1;;exitX=1.007;exitY=0.5;exitPerimeter=0;entryX=-0.008;entryY=0.717;entryPerimeter=0;" edge="1" parent="1" source="-Xr3fof6X1vRUvVv6thg-4" target="-Xr3fof6X1vRUvVv6thg-5">
            <mxGeometry width="100" height="100" relative="1" as="geometry">
              <Array as="points" />
            </mxGeometry>
          </mxCell>
        </UserObject>
        <mxCell id="-Xr3fof6X1vRUvVv6thg-11" value="eDoc" style="text;html=1;resizable=0;labelBackgroundColor=#ffffff;align=center;verticalAlign=middle;fontStyle=1;fontColor=#333333;;fontSize=10.666666666666666;" vertex="1" parent="-Xr3fof6X1vRUvVv6thg-10">
          <mxGeometry x="0.7166140904311262" relative="1" as="geometry" />
        </mxCell>
        <UserObject label="" lucidchartObjectId="fEjLspF8iSy~" id="-Xr3fof6X1vRUvVv6thg-12">
          <mxCell style="html=1;jettySize=18;whiteSpace=wrap;fontSize=11;strokeColor=#5E5E5E;rounded=1;arcSize=12;edgeStyle=orthogonalEdgeStyle;startArrow=none;;endArrow=block;endFill=1;;exitX=1.007;exitY=0.5;exitPerimeter=0;entryX=-0.008;entryY=0.5;entryPerimeter=0;" edge="1" parent="1" source="-Xr3fof6X1vRUvVv6thg-4" target="-Xr3fof6X1vRUvVv6thg-7">
            <mxGeometry width="100" height="100" relative="1" as="geometry">
              <Array as="points">
                <mxPoint x="250" y="264" />
                <mxPoint x="250" y="540" />
              </Array>
            </mxGeometry>
          </mxCell>
        </UserObject>
        <mxCell id="-Xr3fof6X1vRUvVv6thg-13" value="eDoc" style="text;html=1;resizable=0;labelBackgroundColor=#ffffff;align=center;verticalAlign=middle;fontStyle=1;fontColor=#333333;;fontSize=10.666666666666666;" vertex="1" parent="-Xr3fof6X1vRUvVv6thg-12">
          <mxGeometry x="0.585480093676815" relative="1" as="geometry" />
        </mxCell>
        <UserObject label="" lucidchartObjectId="PEjLGPPk9Nk4" id="-Xr3fof6X1vRUvVv6thg-14">
          <mxCell style="html=1;jettySize=18;whiteSpace=wrap;fontSize=11;strokeColor=#5E5E5E;rounded=1;arcSize=12;edgeStyle=orthogonalEdgeStyle;startArrow=none;;endArrow=block;endFill=1;;exitX=1.007;exitY=0.5;exitPerimeter=0;entryX=-0.008;entryY=0.5;entryPerimeter=0;" edge="1" parent="1" source="-Xr3fof6X1vRUvVv6thg-4" target="-Xr3fof6X1vRUvVv6thg-16">
            <mxGeometry width="100" height="100" relative="1" as="geometry">
              <Array as="points" />
            </mxGeometry>
          </mxCell>
        </UserObject>
        <mxCell id="-Xr3fof6X1vRUvVv6thg-15" value="CINDIX" style="text;html=1;resizable=0;labelBackgroundColor=#ffffff;align=center;verticalAlign=middle;fontStyle=1;fontColor=#333333;;fontSize=10.666666666666666;" vertex="1" parent="-Xr3fof6X1vRUvVv6thg-14">
          <mxGeometry x="0.7626918536009446" relative="1" as="geometry" />
        </mxCell>
        <UserObject label="Search with  Partial Model#" lucidchartObjectId="1EjL6-oOuRn1" id="-Xr3fof6X1vRUvVv6thg-16">
          <mxCell style="html=1;overflow=block;whiteSpace=wrap;;whiteSpace=wrap;fontSize=10;fontColor=#333333;spacing=0;strokeColor=#5e5e5e;strokeOpacity=100;rounded=1;absoluteArcSize=1;arcSize=7;strokeWidth=2;" vertex="1" zOrder="11" parent="1">
            <mxGeometry x="360" y="624" width="108" height="36" as="geometry" />
          </mxCell>
        </UserObject>
        <UserObject label="Search with  Partial Model#" lucidchartObjectId="lHjLN2XoaWTJ" id="-Xr3fof6X1vRUvVv6thg-17">
          <mxCell style="html=1;overflow=block;whiteSpace=wrap;;whiteSpace=wrap;fontSize=10;fontColor=#333333;spacing=0;strokeColor=#5e5e5e;strokeOpacity=100;rounded=1;absoluteArcSize=1;arcSize=7;strokeWidth=2;" vertex="1" zOrder="12" parent="1">
            <mxGeometry x="360" y="711" width="108" height="36" as="geometry" />
          </mxCell>
        </UserObject>
        <UserObject label="Display Models List" lucidchartObjectId="w.kLbMs-QvT~" id="-Xr3fof6X1vRUvVv6thg-18">
          <mxCell style="html=1;overflow=block;whiteSpace=wrap;;whiteSpace=wrap;fontSize=11;fontColor=#333333;spacing=0;strokeColor=#5e5e5e;strokeOpacity=100;rounded=1;absoluteArcSize=1;arcSize=7;strokeWidth=2;" vertex="1" zOrder="15" parent="1">
            <mxGeometry x="720" y="606" width="108" height="84" as="geometry" />
          </mxCell>
        </UserObject>
        <UserObject label="LAMBDA" lucidchartObjectId="u~kLIPSDVg86" id="-Xr3fof6X1vRUvVv6thg-19">
          <mxCell style="html=1;overflow=block;whiteSpace=wrap;strokeColor=none;fillColor=none;whiteSpace=wrap;fontSize=11;fontColor=#333333;spacing=0;strokeOpacity=100;rounded=1;absoluteArcSize=1;arcSize=7;strokeWidth=2;" vertex="1" zOrder="18" parent="1">
            <mxGeometry x="650" y="468" width="144" height="36" as="geometry" />
          </mxCell>
        </UserObject>
        <UserObject label="Display Result" lucidchartObjectId="ralL7fFfY5tx" id="-Xr3fof6X1vRUvVv6thg-20">
          <mxCell style="html=1;overflow=block;whiteSpace=wrap;;whiteSpace=wrap;fontSize=11;fontColor=#333333;spacing=0;strokeColor=#5e5e5e;strokeOpacity=100;rounded=1;absoluteArcSize=1;arcSize=7;strokeWidth=2;fillColor=#00CC66;" vertex="1" zOrder="21" parent="1">
            <mxGeometry x="1230" y="606" width="108" height="84" as="geometry" />
          </mxCell>
        </UserObject>
        <UserObject label="" lucidchartObjectId="JalLRUOVvGad" id="-Xr3fof6X1vRUvVv6thg-21">
          <mxCell style="html=1;jettySize=18;whiteSpace=wrap;fontSize=11;strokeColor=#5E5E5E;rounded=1;arcSize=12;edgeStyle=orthogonalEdgeStyle;startArrow=none;;endArrow=block;endFill=1;;exitX=1.008;exitY=0.5;exitPerimeter=0;entryX=-0.012;entryY=0.5;entryPerimeter=0;" edge="1" parent="1" source="-Xr3fof6X1vRUvVv6thg-16" target="-Xr3fof6X1vRUvVv6thg-45">
            <mxGeometry width="100" height="100" relative="1" as="geometry">
              <Array as="points" />
            </mxGeometry>
          </mxCell>
        </UserObject>
        <UserObject label="" lucidchartObjectId="SalLrzvb_-Va" id="-Xr3fof6X1vRUvVv6thg-22">
          <mxCell style="html=1;jettySize=18;whiteSpace=wrap;fontSize=11;strokeColor=#5E5E5E;rounded=1;arcSize=12;edgeStyle=orthogonalEdgeStyle;startArrow=none;;endArrow=block;endFill=1;;exitX=1.013;exitY=0.5;exitPerimeter=0;entryX=-0.008;entryY=0.5;entryPerimeter=0;" edge="1" parent="1" source="-Xr3fof6X1vRUvVv6thg-47" target="-Xr3fof6X1vRUvVv6thg-20">
            <mxGeometry width="100" height="100" relative="1" as="geometry">
              <Array as="points" />
            </mxGeometry>
          </mxCell>
        </UserObject>
        <UserObject label="LAMBDA" lucidchartObjectId="cclLFkj7ZUz0" id="-Xr3fof6X1vRUvVv6thg-23">
          <mxCell style="html=1;overflow=block;whiteSpace=wrap;strokeColor=none;fillColor=none;whiteSpace=wrap;fontSize=11;fontColor=#333333;spacing=0;strokeOpacity=100;rounded=1;absoluteArcSize=1;arcSize=7;strokeWidth=2;" vertex="1" zOrder="28" parent="1">
            <mxGeometry x="534" y="580" width="144" height="36" as="geometry" />
          </mxCell>
        </UserObject>
        <UserObject label="Display Model List on Left of Page" lucidchartObjectId="qclLVQgFfYEK" id="-Xr3fof6X1vRUvVv6thg-24">
          <mxCell style="html=1;overflow=block;whiteSpace=wrap;;whiteSpace=wrap;fontSize=11;fontColor=#333333;spacing=0;strokeColor=#5e5e5e;strokeOpacity=100;rounded=1;absoluteArcSize=1;arcSize=7;strokeWidth=2;" vertex="1" zOrder="29" parent="1">
            <mxGeometry x="700" y="711" width="108" height="84" as="geometry" />
          </mxCell>
        </UserObject>
        <UserObject label="" lucidchartObjectId="gdlLRa8zKXkX" id="-Xr3fof6X1vRUvVv6thg-25">
          <mxCell style="html=1;jettySize=18;whiteSpace=wrap;fontSize=11;strokeColor=#5E5E5E;rounded=1;arcSize=12;edgeStyle=orthogonalEdgeStyle;startArrow=none;;endArrow=block;endFill=1;;exitX=1.008;exitY=0.5;exitPerimeter=0;entryX=-0.012;entryY=0.5;entryPerimeter=0;" edge="1" parent="1" source="-Xr3fof6X1vRUvVv6thg-18" target="-Xr3fof6X1vRUvVv6thg-47">
            <mxGeometry width="100" height="100" relative="1" as="geometry">
              <Array as="points" />
            </mxGeometry>
          </mxCell>
        </UserObject>
        <mxCell id="-Xr3fof6X1vRUvVv6thg-26" value="Select Models" style="text;html=1;resizable=0;labelBackgroundColor=#ffffff;align=center;verticalAlign=middle;fontStyle=1;fontColor=#333333;;fontSize=10.666666666666666;" vertex="1" parent="-Xr3fof6X1vRUvVv6thg-25">
          <mxGeometry relative="1" as="geometry" />
        </mxCell>
        <UserObject label="" lucidchartObjectId="ydlLN4fiP4Qo" id="-Xr3fof6X1vRUvVv6thg-27">
          <mxCell style="html=1;jettySize=18;whiteSpace=wrap;fontSize=11;strokeColor=#5E5E5E;rounded=1;arcSize=12;edgeStyle=orthogonalEdgeStyle;startArrow=none;;endArrow=block;endFill=1;;exitX=1.008;exitY=0.5;exitPerimeter=0;entryX=0;entryY=0.5;entryDx=0;entryDy=0;" edge="1" parent="1" source="-Xr3fof6X1vRUvVv6thg-24" target="-Xr3fof6X1vRUvVv6thg-50">
            <mxGeometry width="100" height="100" relative="1" as="geometry">
              <Array as="points" />
              <mxPoint x="959" y="726" as="targetPoint" />
            </mxGeometry>
          </mxCell>
        </UserObject>
        <mxCell id="-Xr3fof6X1vRUvVv6thg-28" value="Comapre Models" style="text;html=1;resizable=0;labelBackgroundColor=#ffffff;align=center;verticalAlign=middle;fontStyle=1;fontColor=#333333;;fontSize=10.666666666666666;" vertex="1" parent="-Xr3fof6X1vRUvVv6thg-27">
          <mxGeometry relative="1" as="geometry" />
        </mxCell>
        <UserObject label="Display Result" lucidchartObjectId="jelLRvVD97Lu" id="-Xr3fof6X1vRUvVv6thg-29">
          <mxCell style="html=1;overflow=block;whiteSpace=wrap;;whiteSpace=wrap;fontSize=11;fontColor=#333333;spacing=0;strokeColor=#5e5e5e;strokeOpacity=100;rounded=1;absoluteArcSize=1;arcSize=7;strokeWidth=2;fillColor=#00CC66;" vertex="1" zOrder="33" parent="1">
            <mxGeometry x="1200" y="705" width="108" height="84" as="geometry" />
          </mxCell>
        </UserObject>
        <UserObject label="" lucidchartObjectId="yflLa5BHoiE5" id="-Xr3fof6X1vRUvVv6thg-30">
          <mxCell style="html=1;jettySize=18;whiteSpace=wrap;fontSize=11;strokeColor=#5E5E5E;rounded=1;arcSize=12;edgeStyle=orthogonalEdgeStyle;startArrow=none;;endArrow=block;endFill=1;;exitX=1.008;exitY=0.5;exitPerimeter=0;entryX=-0.012;entryY=0.5;entryPerimeter=0;" edge="1" parent="1" source="-Xr3fof6X1vRUvVv6thg-7" target="-Xr3fof6X1vRUvVv6thg-44">
            <mxGeometry width="100" height="100" relative="1" as="geometry">
              <Array as="points" />
            </mxGeometry>
          </mxCell>
        </UserObject>
        <mxCell id="-Xr3fof6X1vRUvVv6thg-31" value="Search using Phone" style="text;html=1;resizable=0;labelBackgroundColor=#ffffff;align=center;verticalAlign=middle;fontStyle=1;fontColor=#333333;;fontSize=10.666666666666666;" vertex="1" parent="-Xr3fof6X1vRUvVv6thg-30">
          <mxGeometry x="-0.3211678832116789" relative="1" as="geometry" />
        </mxCell>
        <UserObject label="" lucidchartObjectId="SflLBxrOwPlP" id="-Xr3fof6X1vRUvVv6thg-32">
          <mxCell style="html=1;jettySize=18;whiteSpace=wrap;fontSize=11;strokeColor=#5E5E5E;rounded=1;arcSize=12;edgeStyle=orthogonalEdgeStyle;startArrow=none;;endArrow=block;endFill=1;;exitX=1.013;exitY=0.5;exitPerimeter=0;entryX=-0.008;entryY=0.5;entryPerimeter=0;" edge="1" parent="1" source="-Xr3fof6X1vRUvVv6thg-44" target="-Xr3fof6X1vRUvVv6thg-33">
            <mxGeometry width="100" height="100" relative="1" as="geometry">
              <Array as="points" />
            </mxGeometry>
          </mxCell>
        </UserObject>
        <UserObject label="Display Result of order FOR CONSUMER" lucidchartObjectId="TflLno.JaqFn" id="-Xr3fof6X1vRUvVv6thg-33">
          <mxCell style="html=1;overflow=block;whiteSpace=wrap;;whiteSpace=wrap;fontSize=11;fontColor=#333333;spacing=0;strokeColor=#5E5E5E;rounded=1;absoluteArcSize=1;arcSize=7;strokeWidth=2;" vertex="1" zOrder="39" parent="1">
            <mxGeometry x="840" y="474" width="108" height="84" as="geometry" />
          </mxCell>
        </UserObject>
        <UserObject label="" lucidchartObjectId="lhlL1.eJ6xFp" id="-Xr3fof6X1vRUvVv6thg-34">
          <mxCell style="html=1;jettySize=18;whiteSpace=wrap;fontSize=11;strokeColor=#5E5E5E;rounded=1;arcSize=12;edgeStyle=orthogonalEdgeStyle;startArrow=none;;endArrow=block;endFill=1;;exitX=1.008;exitY=0.5;exitPerimeter=0;entryX=-0.008;entryY=0.5;entryPerimeter=0;" edge="1" parent="1" source="-Xr3fof6X1vRUvVv6thg-33" target="-Xr3fof6X1vRUvVv6thg-53">
            <mxGeometry width="100" height="100" relative="1" as="geometry">
              <Array as="points" />
            </mxGeometry>
          </mxCell>
        </UserObject>
        <UserObject label="" lucidchartObjectId="UhlL-Yp72E1r" id="-Xr3fof6X1vRUvVv6thg-35">
          <mxCell style="html=1;jettySize=18;whiteSpace=wrap;fontSize=11;strokeColor=#5E5E5E;rounded=1;arcSize=12;edgeStyle=orthogonalEdgeStyle;startArrow=none;;endArrow=block;endFill=1;;exitX=1.008;exitY=0.5;exitPerimeter=0;entryX=-0.008;entryY=0.5;entryPerimeter=0;" edge="1" parent="1" source="-Xr3fof6X1vRUvVv6thg-33" target="-Xr3fof6X1vRUvVv6thg-54">
            <mxGeometry width="100" height="100" relative="1" as="geometry">
              <Array as="points" />
            </mxGeometry>
          </mxCell>
        </UserObject>
        <UserObject label="CANCEL " lucidchartObjectId="ZilLfmF~tMEb" id="-Xr3fof6X1vRUvVv6thg-36">
          <mxCell style="html=1;overflow=block;whiteSpace=wrap;strokeColor=none;fillColor=none;whiteSpace=wrap;fontSize=11;fontColor=#333333;spacing=0;strokeOpacity=100;rounded=1;absoluteArcSize=1;arcSize=7;strokeWidth=2;" vertex="1" zOrder="44" parent="1">
            <mxGeometry x="969" y="420" width="144" height="36" as="geometry" />
          </mxCell>
        </UserObject>
        <UserObject label="Display Result" lucidchartObjectId="kjlLowGD6vOP" id="-Xr3fof6X1vRUvVv6thg-37">
          <mxCell style="html=1;overflow=block;whiteSpace=wrap;;whiteSpace=wrap;fontSize=11;fontColor=#333333;spacing=0;strokeColor=#5e5e5e;strokeOpacity=100;rounded=1;absoluteArcSize=1;arcSize=7;strokeWidth=2;fillColor=#00CC66;" vertex="1" zOrder="45" parent="1">
            <mxGeometry x="1294" y="420" width="108" height="84" as="geometry" />
          </mxCell>
        </UserObject>
        <UserObject label="" lucidchartObjectId="rjlL7HvitVpF" id="-Xr3fof6X1vRUvVv6thg-38">
          <mxCell style="html=1;jettySize=18;whiteSpace=wrap;fontSize=11;strokeColor=#5E5E5E;rounded=1;arcSize=12;edgeStyle=orthogonalEdgeStyle;startArrow=none;;endArrow=block;endFill=1;;exitX=1.008;exitY=0.5;exitPerimeter=0;entryX=-0.008;entryY=0.5;entryPerimeter=0;" edge="1" parent="1" source="-Xr3fof6X1vRUvVv6thg-53" target="-Xr3fof6X1vRUvVv6thg-37">
            <mxGeometry width="100" height="100" relative="1" as="geometry">
              <Array as="points" />
            </mxGeometry>
          </mxCell>
        </UserObject>
        <UserObject label="" lucidchartObjectId="CjlLxLeO~mri" id="-Xr3fof6X1vRUvVv6thg-39">
          <mxCell style="html=1;jettySize=18;whiteSpace=wrap;fontSize=11;strokeColor=#5E5E5E;rounded=1;arcSize=12;edgeStyle=orthogonalEdgeStyle;startArrow=none;;endArrow=block;endFill=1;;exitX=1.008;exitY=0.5;exitPerimeter=0;entryX=-0.008;entryY=0.5;entryPerimeter=0;" edge="1" parent="1" source="-Xr3fof6X1vRUvVv6thg-54" target="-Xr3fof6X1vRUvVv6thg-37">
            <mxGeometry width="100" height="100" relative="1" as="geometry">
              <Array as="points" />
            </mxGeometry>
          </mxCell>
        </UserObject>
        <UserObject label="" lucidchartObjectId="qklLeJbfT2Jp" id="-Xr3fof6X1vRUvVv6thg-40">
          <mxCell style="html=1;jettySize=18;whiteSpace=wrap;fontSize=11;strokeColor=#5E5E5E;rounded=1;arcSize=12;edgeStyle=orthogonalEdgeStyle;startArrow=none;;endArrow=block;endFill=1;;exitX=1.012;exitY=0.467;exitPerimeter=0;entryX=-0.008;entryY=0.5;entryPerimeter=0;" edge="1" parent="1" source="-Xr3fof6X1vRUvVv6thg-49" target="-Xr3fof6X1vRUvVv6thg-24">
            <mxGeometry width="100" height="100" relative="1" as="geometry">
              <Array as="points" />
            </mxGeometry>
          </mxCell>
        </UserObject>
        <UserObject label="" lucidchartObjectId="fmlLfC8hfNi5" id="-Xr3fof6X1vRUvVv6thg-41">
          <mxCell style="html=1;jettySize=18;whiteSpace=wrap;fontSize=11;strokeColor=#5E5E5E;rounded=1;arcSize=12;edgeStyle=orthogonalEdgeStyle;startArrow=none;;endArrow=block;endFill=1;;exitX=1.007;exitY=0.5;exitPerimeter=0;entryX=-0.008;entryY=0.5;entryPerimeter=0;" edge="1" parent="1" source="-Xr3fof6X1vRUvVv6thg-4" target="-Xr3fof6X1vRUvVv6thg-17">
            <mxGeometry width="100" height="100" relative="1" as="geometry">
              <Array as="points">
                <mxPoint x="250" y="264" />
                <mxPoint x="250" y="729" />
              </Array>
            </mxGeometry>
          </mxCell>
        </UserObject>
        <mxCell id="-Xr3fof6X1vRUvVv6thg-42" value=" " style="text;html=1;resizable=0;labelBackgroundColor=#ffffff;align=center;verticalAlign=middle;fontColor=#000000;;fontSize=12.8;" vertex="1" parent="-Xr3fof6X1vRUvVv6thg-41">
          <mxGeometry x="0.8078725398313027" relative="1" as="geometry" />
        </mxCell>
        <mxCell id="-Xr3fof6X1vRUvVv6thg-43" value="ModelFeature" style="text;html=1;resizable=0;labelBackgroundColor=#ffffff;align=center;verticalAlign=middle;fontStyle=1;fontColor=#333333;;fontSize=10.666666666666666;" vertex="1" parent="-Xr3fof6X1vRUvVv6thg-41">
          <mxGeometry x="0.8228678537956888" relative="1" as="geometry" />
        </mxCell>
        <UserObject label="Invoke Postgres Table" lucidchartObjectId="yElLwtWYqtBz" id="-Xr3fof6X1vRUvVv6thg-44">
          <mxCell style="html=1;overflow=block;whiteSpace=wrap;shape=cylinder;size=0.1;anchorPointDirection=0;boundedLbl=1;;whiteSpace=wrap;fontSize=11;fontColor=#333333;spacing=3;strokeColor=#5e5e5e;strokeOpacity=100;rounded=1;absoluteArcSize=1;arcSize=7;strokeWidth=2;" vertex="1" zOrder="51" parent="1">
            <mxGeometry x="684" y="504" width="72" height="72" as="geometry" />
          </mxCell>
        </UserObject>
        <UserObject label="Invokes SVA1" lucidchartObjectId="5ElLfKKwqaxA" id="-Xr3fof6X1vRUvVv6thg-45">
          <mxCell style="html=1;overflow=block;whiteSpace=wrap;shape=cylinder;size=0.1;anchorPointDirection=0;boundedLbl=1;;whiteSpace=wrap;fontSize=11;fontColor=#333333;spacing=3;strokeColor=#5e5e5e;strokeOpacity=100;rounded=1;absoluteArcSize=1;arcSize=7;strokeWidth=2;" vertex="1" zOrder="52" parent="1">
            <mxGeometry x="570" y="606" width="72" height="72" as="geometry" />
          </mxCell>
        </UserObject>
        <UserObject label="" lucidchartObjectId="vFlLTLDrGMOa" id="-Xr3fof6X1vRUvVv6thg-46">
          <mxCell style="html=1;jettySize=18;whiteSpace=wrap;fontSize=11;strokeColor=#5E5E5E;rounded=1;arcSize=12;edgeStyle=orthogonalEdgeStyle;startArrow=none;;endArrow=block;endFill=1;;exitX=1.013;exitY=0.5;exitPerimeter=0;entryX=-0.008;entryY=0.429;entryPerimeter=0;" edge="1" parent="1" source="-Xr3fof6X1vRUvVv6thg-45" target="-Xr3fof6X1vRUvVv6thg-18">
            <mxGeometry width="100" height="100" relative="1" as="geometry">
              <Array as="points" />
            </mxGeometry>
          </mxCell>
        </UserObject>
        <UserObject label="Invokes SVA1" lucidchartObjectId="FFlL.7ixTbK2" id="-Xr3fof6X1vRUvVv6thg-47">
          <mxCell style="html=1;overflow=block;whiteSpace=wrap;shape=cylinder;size=0.1;anchorPointDirection=0;boundedLbl=1;;whiteSpace=wrap;fontSize=11;fontColor=#333333;spacing=3;strokeColor=#5e5e5e;strokeOpacity=100;rounded=1;absoluteArcSize=1;arcSize=7;strokeWidth=2;" vertex="1" zOrder="54" parent="1">
            <mxGeometry x="1041" y="612" width="72" height="72" as="geometry" />
          </mxCell>
        </UserObject>
        <UserObject label="LAMBDA" lucidchartObjectId="9FlL2aXix7lZ" id="-Xr3fof6X1vRUvVv6thg-48">
          <mxCell style="html=1;overflow=block;whiteSpace=wrap;strokeColor=none;fillColor=none;whiteSpace=wrap;fontSize=11;fontColor=#333333;spacing=0;strokeOpacity=100;rounded=1;absoluteArcSize=1;arcSize=7;strokeWidth=2;" vertex="1" zOrder="55" parent="1">
            <mxGeometry x="1056" y="459" width="144" height="36" as="geometry" />
          </mxCell>
        </UserObject>
        <UserObject label="Invokes SSI4 and Salsify" lucidchartObjectId="d3lL2R2NC.Hh" id="-Xr3fof6X1vRUvVv6thg-49">
          <mxCell style="html=1;overflow=block;whiteSpace=wrap;shape=cylinder;size=0.1;anchorPointDirection=0;boundedLbl=1;;whiteSpace=wrap;fontSize=11;fontColor=#333333;spacing=3;strokeColor=#5e5e5e;strokeOpacity=100;rounded=1;absoluteArcSize=1;arcSize=7;strokeWidth=2;" vertex="1" zOrder="56" parent="1">
            <mxGeometry x="531" y="711" width="78" height="90" as="geometry" />
          </mxCell>
        </UserObject>
        <UserObject label="Invokes SSI4 and Salsify" lucidchartObjectId="Y3lLBH1f6Dpu" id="-Xr3fof6X1vRUvVv6thg-50">
          <mxCell style="html=1;overflow=block;whiteSpace=wrap;shape=cylinder;size=0.1;anchorPointDirection=0;boundedLbl=1;;whiteSpace=wrap;fontSize=11;fontColor=#333333;spacing=3;strokeColor=#5e5e5e;strokeOpacity=100;rounded=1;absoluteArcSize=1;arcSize=7;strokeWidth=2;" vertex="1" zOrder="58" parent="1">
            <mxGeometry x="993" y="705" width="78" height="90" as="geometry" />
          </mxCell>
        </UserObject>
        <UserObject label="" lucidchartObjectId=".3lLixVcu4Cx" id="-Xr3fof6X1vRUvVv6thg-51">
          <mxCell style="html=1;jettySize=18;whiteSpace=wrap;fontSize=11;strokeColor=#5E5E5E;rounded=1;arcSize=12;edgeStyle=orthogonalEdgeStyle;startArrow=none;;endArrow=block;endFill=1;;exitX=1.012;exitY=0.5;exitPerimeter=0;entryX=-0.008;entryY=0.536;entryPerimeter=0;" edge="1" parent="1" source="-Xr3fof6X1vRUvVv6thg-50" target="-Xr3fof6X1vRUvVv6thg-29">
            <mxGeometry width="100" height="100" relative="1" as="geometry">
              <Array as="points" />
            </mxGeometry>
          </mxCell>
        </UserObject>
        <UserObject label="" lucidchartObjectId="h4lL6PXlET3E" id="-Xr3fof6X1vRUvVv6thg-52">
          <mxCell style="html=1;jettySize=18;whiteSpace=wrap;fontSize=11;strokeColor=#5E5E5E;rounded=1;arcSize=12;edgeStyle=orthogonalEdgeStyle;startArrow=none;;endArrow=block;endFill=1;;exitX=1.008;exitY=0.5;exitPerimeter=0;entryX=-0.012;entryY=0.2;entryPerimeter=0;" edge="1" parent="1" source="-Xr3fof6X1vRUvVv6thg-17" target="-Xr3fof6X1vRUvVv6thg-49">
            <mxGeometry width="100" height="100" relative="1" as="geometry">
              <Array as="points" />
            </mxGeometry>
          </mxCell>
        </UserObject>
        <UserObject label="Update Postgres table with STATUS=CANCEL" lucidchartObjectId="v4lLLe2HC2bZ" id="-Xr3fof6X1vRUvVv6thg-53">
          <mxCell style="html=1;overflow=block;whiteSpace=wrap;shape=cylinder;size=0.1;anchorPointDirection=0;boundedLbl=1;;whiteSpace=wrap;fontSize=11;fontColor=#333333;spacing=3;strokeColor=#5e5e5e;strokeOpacity=100;rounded=1;absoluteArcSize=1;arcSize=7;strokeWidth=2;" vertex="1" zOrder="61" parent="1">
            <mxGeometry x="1068" y="380" width="114" height="79" as="geometry" />
          </mxCell>
        </UserObject>
        <UserObject label="Update Postgres Table eith Agent NOTES" lucidchartObjectId="O4lLSYf3ZzYw" id="-Xr3fof6X1vRUvVv6thg-54">
          <mxCell style="html=1;overflow=block;whiteSpace=wrap;shape=cylinder;size=0.1;anchorPointDirection=0;boundedLbl=1;;whiteSpace=wrap;fontSize=11;fontColor=#333333;spacing=3;strokeColor=#5e5e5e;strokeOpacity=100;rounded=1;absoluteArcSize=1;arcSize=7;strokeWidth=2;" vertex="1" zOrder="62" parent="1">
            <mxGeometry x="1071" y="490" width="114" height="86" as="geometry" />
          </mxCell>
        </UserObject>
        <UserObject label="" lucidchartObjectId="N5lLcx2AEiov" id="-Xr3fof6X1vRUvVv6thg-55">
          <mxCell style="html=1;jettySize=18;whiteSpace=wrap;fontSize=11;strokeColor=#5E5E5E;rounded=1;arcSize=12;edgeStyle=orthogonalEdgeStyle;startArrow=none;;endArrow=block;endFill=1;;exitX=1.008;exitY=0.5;exitPerimeter=0;entryX=-0.012;entryY=0.5;entryPerimeter=0;" edge="1" parent="1" source="-Xr3fof6X1vRUvVv6thg-5" target="-Xr3fof6X1vRUvVv6thg-57">
            <mxGeometry width="100" height="100" relative="1" as="geometry">
              <Array as="points" />
            </mxGeometry>
          </mxCell>
        </UserObject>
        <mxCell id="-Xr3fof6X1vRUvVv6thg-56" value="Search for Doc" style="text;html=1;resizable=0;labelBackgroundColor=#ffffff;align=center;verticalAlign=middle;fontStyle=1;fontColor=#333333;;fontSize=10.666666666666666;" vertex="1" parent="-Xr3fof6X1vRUvVv6thg-55">
          <mxGeometry relative="1" as="geometry" />
        </mxCell>
        <UserObject label="Invoke SVA1 and Salsify" lucidchartObjectId="U5lLO8k~4eli" id="-Xr3fof6X1vRUvVv6thg-57">
          <mxCell style="html=1;overflow=block;whiteSpace=wrap;shape=cylinder;size=0.1;anchorPointDirection=0;boundedLbl=1;;whiteSpace=wrap;fontSize=11;fontColor=#333333;spacing=3;strokeColor=#5e5e5e;strokeOpacity=100;rounded=1;absoluteArcSize=1;arcSize=7;strokeWidth=2;" vertex="1" zOrder="64" parent="1">
            <mxGeometry x="600" y="66" width="72" height="72" as="geometry" />
          </mxCell>
        </UserObject>
        <mxCell id="-Xr3fof6X1vRUvVv6thg-106" style="edgeStyle=orthogonalEdgeStyle;rounded=0;orthogonalLoop=1;jettySize=auto;html=1;exitX=1;exitY=0.5;exitDx=0;exitDy=0;entryX=0;entryY=0.5;entryDx=0;entryDy=0;" edge="1" parent="1" source="-Xr3fof6X1vRUvVv6thg-58" target="-Xr3fof6X1vRUvVv6thg-102">
          <mxGeometry relative="1" as="geometry" />
        </mxCell>
        <UserObject label="Display Document List" lucidchartObjectId="f6lL8H.bw~57" id="-Xr3fof6X1vRUvVv6thg-58">
          <mxCell style="html=1;overflow=block;whiteSpace=wrap;;whiteSpace=wrap;fontSize=11;fontColor=#333333;spacing=0;strokeColor=#5e5e5e;strokeOpacity=100;rounded=1;absoluteArcSize=1;arcSize=7;strokeWidth=2;" vertex="1" zOrder="65" parent="1">
            <mxGeometry x="732" y="66" width="118" height="84" as="geometry" />
          </mxCell>
        </UserObject>
        <UserObject label="" lucidchartObjectId="46lL.0iiIbT6" id="-Xr3fof6X1vRUvVv6thg-59">
          <mxCell style="html=1;jettySize=18;whiteSpace=wrap;fontSize=11;strokeColor=#5E5E5E;rounded=1;arcSize=12;edgeStyle=orthogonalEdgeStyle;startArrow=none;;endArrow=block;endFill=1;;exitX=1.013;exitY=0.5;exitPerimeter=0;entryX=-0.008;entryY=0.429;entryPerimeter=0;" edge="1" parent="1" source="-Xr3fof6X1vRUvVv6thg-57" target="-Xr3fof6X1vRUvVv6thg-58">
            <mxGeometry width="100" height="100" relative="1" as="geometry">
              <Array as="points" />
            </mxGeometry>
          </mxCell>
        </UserObject>
        <UserObject label="Display Document in New Tab " lucidchartObjectId="q7lL51Yi-YE-" id="-Xr3fof6X1vRUvVv6thg-60">
          <mxCell style="html=1;overflow=block;whiteSpace=wrap;;whiteSpace=wrap;fontSize=11;fontColor=#333333;spacing=0;strokeColor=#5E5E5E;rounded=1;absoluteArcSize=1;arcSize=7;strokeWidth=2;" vertex="1" zOrder="68" parent="1">
            <mxGeometry x="1068" y="24" width="108" height="84" as="geometry" />
          </mxCell>
        </UserObject>
        <UserObject label="Invoke Salsify" lucidchartObjectId="V7lLfkhFgSl-" id="-Xr3fof6X1vRUvVv6thg-61">
          <mxCell style="html=1;overflow=block;whiteSpace=wrap;shape=cylinder;size=0.1;anchorPointDirection=0;boundedLbl=1;;whiteSpace=wrap;fontSize=11;fontColor=#333333;spacing=3;strokeColor=#5e5e5e;strokeOpacity=100;rounded=1;absoluteArcSize=1;arcSize=7;strokeWidth=2;" vertex="1" zOrder="69" parent="1">
            <mxGeometry x="927" y="30" width="72" height="72" as="geometry" />
          </mxCell>
        </UserObject>
        <UserObject label="" lucidchartObjectId="i8lLnyoPt401" id="-Xr3fof6X1vRUvVv6thg-62">
          <mxCell style="html=1;jettySize=18;whiteSpace=wrap;fontSize=11;strokeColor=#5E5E5E;rounded=1;arcSize=12;edgeStyle=orthogonalEdgeStyle;startArrow=none;;endArrow=block;endFill=1;;exitX=1.008;exitY=0.5;exitPerimeter=0;entryX=-0.012;entryY=0.5;entryPerimeter=0;" edge="1" parent="1" source="-Xr3fof6X1vRUvVv6thg-58" target="-Xr3fof6X1vRUvVv6thg-61">
            <mxGeometry width="100" height="100" relative="1" as="geometry">
              <Array as="points" />
            </mxGeometry>
          </mxCell>
        </UserObject>
        <UserObject label="" lucidchartObjectId="m8lL5bD0e4uA" id="-Xr3fof6X1vRUvVv6thg-63">
          <mxCell style="html=1;jettySize=18;whiteSpace=wrap;fontSize=11;strokeColor=#5E5E5E;rounded=1;arcSize=12;edgeStyle=orthogonalEdgeStyle;startArrow=none;;endArrow=block;endFill=1;;exitX=1.013;exitY=0.5;exitPerimeter=0;entryX=-0.008;entryY=0.5;entryPerimeter=0;" edge="1" parent="1" source="-Xr3fof6X1vRUvVv6thg-61" target="-Xr3fof6X1vRUvVv6thg-60">
            <mxGeometry width="100" height="100" relative="1" as="geometry">
              <Array as="points" />
            </mxGeometry>
          </mxCell>
        </UserObject>
        <mxCell id="-Xr3fof6X1vRUvVv6thg-79" style="edgeStyle=orthogonalEdgeStyle;rounded=0;orthogonalLoop=1;jettySize=auto;html=1;exitX=1;exitY=0.5;exitDx=0;exitDy=0;entryX=0;entryY=0.5;entryDx=0;entryDy=0;" edge="1" parent="1" source="-Xr3fof6X1vRUvVv6thg-64" target="-Xr3fof6X1vRUvVv6thg-67">
          <mxGeometry relative="1" as="geometry">
            <mxPoint x="1300" y="192" as="targetPoint" />
          </mxGeometry>
        </mxCell>
        <UserObject label="Insert into Postgres Table" lucidchartObjectId="f9lLoPnGk6is" id="-Xr3fof6X1vRUvVv6thg-64">
          <mxCell style="html=1;overflow=block;whiteSpace=wrap;shape=cylinder;size=0.1;anchorPointDirection=0;boundedLbl=1;;whiteSpace=wrap;fontSize=11;fontColor=#333333;spacing=3;strokeColor=#5e5e5e;strokeOpacity=100;rounded=1;absoluteArcSize=1;arcSize=7;strokeWidth=2;" vertex="1" zOrder="73" parent="1">
            <mxGeometry x="1190" y="260" width="76" height="72" as="geometry" />
          </mxCell>
        </UserObject>
        <mxCell id="-Xr3fof6X1vRUvVv6thg-101" style="edgeStyle=orthogonalEdgeStyle;rounded=0;orthogonalLoop=1;jettySize=auto;html=1;exitX=0.5;exitY=1;exitDx=0;exitDy=0;entryX=0.85;entryY=0.05;entryDx=0;entryDy=0;entryPerimeter=0;" edge="1" parent="1" source="-Xr3fof6X1vRUvVv6thg-65" target="-Xr3fof6X1vRUvVv6thg-64">
          <mxGeometry relative="1" as="geometry" />
        </mxCell>
        <UserObject label="Select Consumer" lucidchartObjectId="B9lLTGhqk9ZV" id="-Xr3fof6X1vRUvVv6thg-65">
          <mxCell style="html=1;overflow=block;whiteSpace=wrap;;whiteSpace=wrap;fontSize=11;fontColor=#333333;spacing=0;strokeColor=#5e5e5e;strokeOpacity=100;rounded=1;absoluteArcSize=1;arcSize=7;strokeWidth=2;" vertex="1" zOrder="74" parent="1">
            <mxGeometry x="1372" y="128" width="108" height="84" as="geometry" />
          </mxCell>
        </UserObject>
        <mxCell id="-Xr3fof6X1vRUvVv6thg-75" style="edgeStyle=orthogonalEdgeStyle;rounded=0;orthogonalLoop=1;jettySize=auto;html=1;exitX=1;exitY=0.5;exitDx=0;exitDy=0;entryX=0;entryY=0.5;entryDx=0;entryDy=0;" edge="1" parent="1" source="-Xr3fof6X1vRUvVv6thg-66" target="-Xr3fof6X1vRUvVv6thg-65">
          <mxGeometry relative="1" as="geometry" />
        </mxCell>
        <UserObject label="Invoke CN1" lucidchartObjectId="I_lLpCg9F2I." id="-Xr3fof6X1vRUvVv6thg-66">
          <mxCell style="html=1;overflow=block;whiteSpace=wrap;shape=cylinder;size=0.1;anchorPointDirection=0;boundedLbl=1;;whiteSpace=wrap;fontSize=11;fontColor=#333333;spacing=3;strokeColor=#5e5e5e;strokeOpacity=100;rounded=1;absoluteArcSize=1;arcSize=7;strokeWidth=2;" vertex="1" zOrder="75" parent="1">
            <mxGeometry x="1203" y="134" width="72" height="72" as="geometry" />
          </mxCell>
        </UserObject>
        <mxCell id="-Xr3fof6X1vRUvVv6thg-95" style="edgeStyle=orthogonalEdgeStyle;rounded=0;orthogonalLoop=1;jettySize=auto;html=1;exitX=0.5;exitY=1;exitDx=0;exitDy=0;entryX=0.5;entryY=1;entryDx=0;entryDy=0;" edge="1" parent="1" source="-Xr3fof6X1vRUvVv6thg-67" target="-Xr3fof6X1vRUvVv6thg-6">
          <mxGeometry relative="1" as="geometry">
            <Array as="points">
              <mxPoint x="1422" y="380" />
              <mxPoint x="425" y="380" />
            </Array>
          </mxGeometry>
        </mxCell>
        <UserObject label="Any more orders ?" lucidchartObjectId="8_lLlx0jThdN" id="-Xr3fof6X1vRUvVv6thg-67">
          <mxCell style="html=1;overflow=block;whiteSpace=wrap;rhombus;whiteSpace=wrap;fontSize=11;fontColor=#333333;spacing=3;strokeColor=#5e5e5e;strokeOpacity=100;rounded=1;absoluteArcSize=1;arcSize=7;strokeWidth=2;" vertex="1" zOrder="76" parent="1">
            <mxGeometry x="1480" y="228" width="96" height="72" as="geometry" />
          </mxCell>
        </UserObject>
        <UserObject label="" lucidchartObjectId="l.lLKTMPlHPw" id="-Xr3fof6X1vRUvVv6thg-68">
          <mxCell style="html=1;jettySize=18;whiteSpace=wrap;fontSize=10;fontColor=#333333;fontStyle=1;strokeColor=#5E5E5E;rounded=1;arcSize=12;edgeStyle=orthogonalEdgeStyle;startArrow=none;;endArrow=block;endFill=1;;exitX=0.5;exitY=0.006;exitPerimeter=0;entryX=0.5;entryY=-0.025;entryPerimeter=0;" edge="1" parent="1" source="-Xr3fof6X1vRUvVv6thg-67" target="-Xr3fof6X1vRUvVv6thg-5">
            <mxGeometry width="100" height="100" relative="1" as="geometry">
              <Array as="points">
                <mxPoint x="1510" y="228" />
                <mxPoint x="1510" y="18" />
                <mxPoint x="438" y="18" />
              </Array>
            </mxGeometry>
          </mxCell>
        </UserObject>
        <mxCell id="-Xr3fof6X1vRUvVv6thg-69" value="Yes" style="text;html=1;resizable=0;labelBackgroundColor=#ffffff;align=center;verticalAlign=middle;fontStyle=1;fontColor=#333333;;fontSize=10.666666666666666;" vertex="1" parent="-Xr3fof6X1vRUvVv6thg-68">
          <mxGeometry relative="1" as="geometry" />
        </mxCell>
        <UserObject label="" lucidchartObjectId="I.lL2wCSHQkV" id="-Xr3fof6X1vRUvVv6thg-70">
          <mxCell style="html=1;jettySize=18;whiteSpace=wrap;fontSize=10;fontColor=#333333;fontStyle=1;strokeColor=#5E5E5E;rounded=1;arcSize=12;edgeStyle=orthogonalEdgeStyle;startArrow=none;;endArrow=block;endFill=1;;exitX=0.991;exitY=0.5;exitPerimeter=0;entryX=-0.008;entryY=0.5;entryPerimeter=0;" edge="1" parent="1" source="-Xr3fof6X1vRUvVv6thg-67" target="-Xr3fof6X1vRUvVv6thg-72">
            <mxGeometry width="100" height="100" relative="1" as="geometry">
              <Array as="points" />
            </mxGeometry>
          </mxCell>
        </UserObject>
        <mxCell id="-Xr3fof6X1vRUvVv6thg-71" value="No" style="text;html=1;resizable=0;labelBackgroundColor=#ffffff;align=center;verticalAlign=middle;fontStyle=1;fontColor=#333333;;fontSize=10.666666666666666;" vertex="1" parent="-Xr3fof6X1vRUvVv6thg-70">
          <mxGeometry relative="1" as="geometry" />
        </mxCell>
        <mxCell id="-Xr3fof6X1vRUvVv6thg-100" style="edgeStyle=orthogonalEdgeStyle;rounded=0;orthogonalLoop=1;jettySize=auto;html=1;exitX=1;exitY=0.5;exitDx=0;exitDy=0;entryX=0;entryY=0.5;entryDx=0;entryDy=0;" edge="1" parent="1" source="-Xr3fof6X1vRUvVv6thg-72" target="-Xr3fof6X1vRUvVv6thg-99">
          <mxGeometry relative="1" as="geometry" />
        </mxCell>
        <UserObject label="Order Placed" lucidchartObjectId="R.lLBaoUMZ3C" id="-Xr3fof6X1vRUvVv6thg-72">
          <mxCell style="html=1;overflow=block;whiteSpace=wrap;;whiteSpace=wrap;fontSize=11;fontColor=#333333;spacing=0;strokeColor=#5e5e5e;strokeOpacity=100;rounded=1;absoluteArcSize=1;arcSize=7;strokeWidth=2;fillColor=#3399FF;" vertex="1" zOrder="79" parent="1">
            <mxGeometry x="1550" y="232" width="100" height="84" as="geometry" />
          </mxCell>
        </UserObject>
        <mxCell id="-Xr3fof6X1vRUvVv6thg-80" value="View Document on click" style="text;html=1;align=center;verticalAlign=middle;resizable=0;points=[];autosize=1;" vertex="1" parent="1">
          <mxGeometry x="787" y="46" width="140" height="20" as="geometry" />
        </mxCell>
        <UserObject label="LAMBDA" lucidchartObjectId="cclLFkj7ZUz0" id="-Xr3fof6X1vRUvVv6thg-82">
          <mxCell style="html=1;overflow=block;whiteSpace=wrap;strokeColor=none;fillColor=none;whiteSpace=wrap;fontSize=11;fontColor=#333333;spacing=0;strokeOpacity=100;rounded=1;absoluteArcSize=1;arcSize=7;strokeWidth=2;" vertex="1" zOrder="28" parent="1">
            <mxGeometry x="498" y="684" width="144" height="36" as="geometry" />
          </mxCell>
        </UserObject>
        <mxCell id="-Xr3fof6X1vRUvVv6thg-91" style="edgeStyle=orthogonalEdgeStyle;rounded=0;orthogonalLoop=1;jettySize=auto;html=1;exitX=1;exitY=0.5;exitDx=0;exitDy=0;" edge="1" parent="1" source="-Xr3fof6X1vRUvVv6thg-83">
          <mxGeometry relative="1" as="geometry">
            <mxPoint x="690" y="316" as="targetPoint" />
          </mxGeometry>
        </mxCell>
        <UserObject label="Invoke CN1" lucidchartObjectId="I_lLpCg9F2I." id="-Xr3fof6X1vRUvVv6thg-83">
          <mxCell style="html=1;overflow=block;whiteSpace=wrap;shape=cylinder;size=0.1;anchorPointDirection=0;boundedLbl=1;;whiteSpace=wrap;fontSize=11;fontColor=#333333;spacing=3;strokeColor=#5e5e5e;strokeOpacity=100;rounded=1;absoluteArcSize=1;arcSize=7;strokeWidth=2;" vertex="1" zOrder="75" parent="1">
            <mxGeometry x="578" y="280" width="72" height="72" as="geometry" />
          </mxCell>
        </UserObject>
        <mxCell id="-Xr3fof6X1vRUvVv6thg-88" style="edgeStyle=orthogonalEdgeStyle;rounded=0;orthogonalLoop=1;jettySize=auto;html=1;exitX=1;exitY=0.5;exitDx=0;exitDy=0;" edge="1" parent="1" source="-Xr3fof6X1vRUvVv6thg-84">
          <mxGeometry relative="1" as="geometry">
            <mxPoint x="960" y="322" as="targetPoint" />
            <Array as="points">
              <mxPoint x="880" y="322" />
              <mxPoint x="880" y="322" />
            </Array>
          </mxGeometry>
        </mxCell>
        <mxCell id="-Xr3fof6X1vRUvVv6thg-89" value="Select Type of order Misc/sales" style="edgeLabel;html=1;align=center;verticalAlign=middle;resizable=0;points=[];" vertex="1" connectable="0" parent="-Xr3fof6X1vRUvVv6thg-88">
          <mxGeometry x="-0.0526" y="18" relative="1" as="geometry">
            <mxPoint x="10" y="6" as="offset" />
          </mxGeometry>
        </mxCell>
        <UserObject label="Select Consumer" lucidchartObjectId="B9lLTGhqk9ZV" id="-Xr3fof6X1vRUvVv6thg-84">
          <mxCell style="html=1;overflow=block;whiteSpace=wrap;;whiteSpace=wrap;fontSize=11;fontColor=#333333;spacing=0;strokeColor=#5e5e5e;strokeOpacity=100;rounded=1;absoluteArcSize=1;arcSize=7;strokeWidth=2;" vertex="1" zOrder="74" parent="1">
            <mxGeometry x="696" y="280" width="108" height="84" as="geometry" />
          </mxCell>
        </UserObject>
        <mxCell id="-Xr3fof6X1vRUvVv6thg-87" style="edgeStyle=orthogonalEdgeStyle;rounded=0;orthogonalLoop=1;jettySize=auto;html=1;exitX=1;exitY=0.5;exitDx=0;exitDy=0;" edge="1" parent="1" source="-Xr3fof6X1vRUvVv6thg-85">
          <mxGeometry relative="1" as="geometry">
            <mxPoint x="1190" y="316" as="targetPoint" />
          </mxGeometry>
        </mxCell>
        <UserObject label="Invoke SVA1" lucidchartObjectId="I_lLpCg9F2I." id="-Xr3fof6X1vRUvVv6thg-85">
          <mxCell style="html=1;overflow=block;whiteSpace=wrap;shape=cylinder;size=0.1;anchorPointDirection=0;boundedLbl=1;;whiteSpace=wrap;fontSize=11;fontColor=#333333;spacing=3;strokeColor=#5e5e5e;strokeOpacity=100;rounded=1;absoluteArcSize=1;arcSize=7;strokeWidth=2;" vertex="1" zOrder="75" parent="1">
            <mxGeometry x="969" y="280" width="72" height="72" as="geometry" />
          </mxCell>
        </UserObject>
        <mxCell id="-Xr3fof6X1vRUvVv6thg-90" value="Mono" style="text;html=1;align=center;verticalAlign=middle;resizable=0;points=[];autosize=1;" vertex="1" parent="1">
          <mxGeometry x="865" y="320" width="50" height="20" as="geometry" />
        </mxCell>
        <mxCell id="-Xr3fof6X1vRUvVv6thg-93" value="Enter Phone" style="text;html=1;align=center;verticalAlign=middle;resizable=0;points=[];autosize=1;" vertex="1" parent="1">
          <mxGeometry x="480" y="326" width="80" height="20" as="geometry" />
        </mxCell>
        <mxCell id="-Xr3fof6X1vRUvVv6thg-96" value="OrderLiterature" style="text;html=1;align=center;verticalAlign=middle;resizable=0;points=[];autosize=1;" vertex="1" parent="1">
          <mxGeometry x="1330" y="212" width="100" height="20" as="geometry" />
        </mxCell>
        <mxCell id="-Xr3fof6X1vRUvVv6thg-97" value="Sales Literature" style="text;html=1;align=center;verticalAlign=middle;resizable=0;points=[];autosize=1;" vertex="1" parent="1">
          <mxGeometry x="1320" y="332" width="100" height="20" as="geometry" />
        </mxCell>
        <UserObject label="Display Document in New Tab " lucidchartObjectId="q7lL51Yi-YE-" id="-Xr3fof6X1vRUvVv6thg-99">
          <mxCell style="html=1;overflow=block;whiteSpace=wrap;;whiteSpace=wrap;fontSize=11;fontColor=#333333;spacing=0;strokeColor=#5E5E5E;rounded=1;absoluteArcSize=1;arcSize=7;strokeWidth=2;" vertex="1" zOrder="68" parent="1">
            <mxGeometry x="1700" y="232" width="108" height="84" as="geometry" />
          </mxCell>
        </UserObject>
        <mxCell id="-Xr3fof6X1vRUvVv6thg-108" style="edgeStyle=orthogonalEdgeStyle;rounded=0;orthogonalLoop=1;jettySize=auto;html=1;exitX=0.5;exitY=1;exitDx=0;exitDy=0;entryX=0.5;entryY=1;entryDx=0;entryDy=0;" edge="1" parent="1" source="-Xr3fof6X1vRUvVv6thg-102" target="-Xr3fof6X1vRUvVv6thg-58">
          <mxGeometry relative="1" as="geometry" />
        </mxCell>
        <mxCell id="-Xr3fof6X1vRUvVv6thg-111" style="edgeStyle=orthogonalEdgeStyle;rounded=0;orthogonalLoop=1;jettySize=auto;html=1;exitX=1;exitY=0.5;exitDx=0;exitDy=0;" edge="1" parent="1" source="-Xr3fof6X1vRUvVv6thg-102">
          <mxGeometry relative="1" as="geometry">
            <mxPoint x="1050" y="191.52941176470586" as="targetPoint" />
          </mxGeometry>
        </mxCell>
        <UserObject label="Check Doctype" lucidchartObjectId="8_lLlx0jThdN" id="-Xr3fof6X1vRUvVv6thg-102">
          <mxCell style="html=1;overflow=block;whiteSpace=wrap;rhombus;whiteSpace=wrap;fontSize=11;fontColor=#333333;spacing=3;strokeColor=#5e5e5e;strokeOpacity=100;rounded=1;absoluteArcSize=1;arcSize=7;strokeWidth=2;" vertex="1" zOrder="76" parent="1">
            <mxGeometry x="864" y="156" width="96" height="72" as="geometry" />
          </mxCell>
        </UserObject>
        <mxCell id="-Xr3fof6X1vRUvVv6thg-105" value="User /Instruction Manual" style="text;html=1;align=center;verticalAlign=middle;resizable=0;points=[];autosize=1;" vertex="1" parent="1">
          <mxGeometry x="918" y="220" width="150" height="20" as="geometry" />
        </mxCell>
        <mxCell id="-Xr3fof6X1vRUvVv6thg-107" value="Verify" style="text;html=1;align=center;verticalAlign=middle;resizable=0;points=[];autosize=1;" vertex="1" parent="1">
          <mxGeometry x="864" y="120" width="50" height="20" as="geometry" />
        </mxCell>
        <mxCell id="-Xr3fof6X1vRUvVv6thg-109" value="NO" style="text;html=1;align=center;verticalAlign=middle;resizable=0;points=[];autosize=1;" vertex="1" parent="1">
          <mxGeometry x="834" y="228" width="30" height="20" as="geometry" />
        </mxCell>
        <mxCell id="-Xr3fof6X1vRUvVv6thg-112" style="edgeStyle=orthogonalEdgeStyle;rounded=0;orthogonalLoop=1;jettySize=auto;html=1;exitX=1;exitY=0.5;exitDx=0;exitDy=0;entryX=0;entryY=0.3;entryDx=0;entryDy=0;" edge="1" parent="1" source="-Xr3fof6X1vRUvVv6thg-110" target="-Xr3fof6X1vRUvVv6thg-66">
          <mxGeometry relative="1" as="geometry" />
        </mxCell>
        <UserObject label="Search consumer by phone" lucidchartObjectId="B9lLTGhqk9ZV" id="-Xr3fof6X1vRUvVv6thg-110">
          <mxCell style="html=1;overflow=block;whiteSpace=wrap;;whiteSpace=wrap;fontSize=11;fontColor=#333333;spacing=0;strokeColor=#5e5e5e;strokeOpacity=100;rounded=1;absoluteArcSize=1;arcSize=7;strokeWidth=2;" vertex="1" zOrder="74" parent="1">
            <mxGeometry x="1060" y="144" width="108" height="84" as="geometry" />
          </mxCell>
        </UserObject>
      </root>
    </mxGraphModel>
  </diagram>
</mxfile>
